# Blender 4.3.2
# www.blender.org
o Cube
v -0.083923 2.314998 0.145359
v 0.083925 2.434265 0.145835
v -0.168259 2.434265 0.000237
v -0.000411 2.553532 0.000713
v 0.000411 2.196894 -0.000713
v 0.168259 2.316162 -0.000237
v -0.083925 2.316162 -0.145835
v 0.083923 2.435429 -0.145359
vn -0.4096 0.5736 0.7094
vn -0.4096 0.5792 -0.7048
vn 0.4096 -0.5736 -0.7094
vn 0.4096 -0.5792 0.7048
vn -0.8152 -0.5792 -0.0023
vn 0.8152 0.5792 0.0023
vt 0.375000 0.000000
vt 0.625000 0.000000
vt 0.625000 0.250000
vt 0.375000 0.250000
vt 0.625000 0.500000
vt 0.375000 0.500000
vt 0.625000 0.750000
vt 0.375000 0.750000
vt 0.625000 1.000000
vt 0.375000 1.000000
vt 0.125000 0.500000
vt 0.125000 0.750000
vt 0.875000 0.500000
vt 0.875000 0.750000
s 0
f 1/1/1 2/2/1 4/3/1 3/4/1
f 3/4/2 4/3/2 8/5/2 7/6/2
f 7/6/3 8/5/3 6/7/3 5/8/3
f 5/8/4 6/7/4 2/9/4 1/10/4
f 3/11/5 7/6/5 5/8/5 1/12/5
f 8/5/6 4/13/6 2/14/6 6/7/6
